<?xml version="1.0" encoding="utf-8"?>
<!-- Generator: Adobe Illustrator 25.0.0, SVG Export Plug-In . SVG Version: 6.00 Build 0)  -->
<svg version="1.1" id="Layer_1" xmlns="http://www.w3.org/2000/svg" xmlns:xlink="http://www.w3.org/1999/xlink" x="0px" y="0px"
	 viewBox="0 0 100 100" style="enable-background:new 0 0 100 100;" xml:space="preserve">
<style type="text/css">
	.st0{fill:#1976D2;}
</style>
<path class="st0" d="M50,5C25.1,5,5,25.1,5,50s20.1,45,45,45s45-20.1,45-45S74.9,5,50,5L50,5z M57.1,75c0,2.2-1.9,4.1-4.1,4.1h-6.2
	c-2.2,0-4.1-1.9-4.1-4.1V48.8c0-2.3,1.9-4.1,4.1-4.1H53c2.2,0,4.1,1.9,4.1,4.1V75z M49.9,37.9c-4.6,0-8.4-3.8-8.4-8.5
	s3.8-8.5,8.4-8.5c4.7,0,8.5,3.8,8.5,8.5S54.6,37.9,49.9,37.9z"/>
</svg>
